<svg xmlns="http://www.w3.org/2000/svg" xmlns:xlink="http://www.w3.org/1999/xlink" viewBox="0 -65 128 128">
  <defs>
    <style>
      .cls-1 {
        clip-path: url(#clip-user);
      }

      .cls-2 {
        fill: none;
      }

      .cls-3 {
        fill: #f9f9f9;
      }

      .cls-4 {
        fill: #535353;
      }

      .cls-5 {
        fill: #fff;
      }
    </style>
    <clipPath id="clip-user">
      <rect y="-65" width="128" height="128"/>
    </clipPath>
  </defs>
  <g id="user" class="cls-1">
    <rect class="cls-5" y="-65" width="128" height="128"/>
    <rect id="Rectangle_9" data-name="Rectangle 9" class="cls-2" width="142.82" height="142.82" transform="translate(-7.41 -72.41)"/>
    <rect id="Rectangle_10" data-name="Rectangle 10" class="cls-3" width="128" height="128" transform="translate(0 -65)"/>
    <path id="Path_1" data-name="Path 1" class="cls-4" d="M80.115,90.349a126.276,126.276,0,0,1-.275-12.861c2.23-1.17,6.226-8.63,6.9-14.933,1.754-.144,4.518-1.854,5.328-8.609.437-3.626-1.3-5.667-2.355-6.309,2.853-8.581,8.78-35.129-10.961-37.873C76.721,6.2,71.518,4.391,64.758,4.391c-27.049.5-30.312,20.426-24.382,43.246-1.054.642-2.789,2.682-2.355,6.309.813,6.755,3.574,8.465,5.328,8.609.672,6.3,4.827,13.763,7.063,14.933a126.31,126.31,0,0,1-.278,12.861C44.781,104.738,8.668,100.7,7,128.451H123.089C121.424,100.7,85.467,104.738,80.115,90.349Z" transform="translate(-1 -65.291)"/>
  </g>
</svg>
